<svg width="63" height="39" viewBox="0 0 63 39" fill="none" xmlns="http://www.w3.org/2000/svg">
<g clip-path="url(#clip0_789_124)">
<path d="M61.6835 6.1022C60.959 3.70023 58.8242 1.80852 56.1137 1.16655C51.2007 0 31.5 0 31.5 0C31.5 0 11.7995 0 6.88634 1.16655C4.17579 1.80863 2.04099 3.70023 1.31645 6.1022C0 10.4558 0 19.5395 0 19.5395C0 19.5395 0 28.6229 1.31645 32.9767C2.04099 35.3786 4.17579 37.1915 6.88634 37.8334C11.7995 39 31.5 39 31.5 39C31.5 39 51.2005 39 56.1137 37.8334C58.8242 37.1915 60.959 35.3786 61.6835 32.9767C63 28.6229 63 19.5395 63 19.5395C63 19.5395 63 10.4558 61.6835 6.1022ZM25.0567 27.7866V11.2922L41.5227 19.5396L25.0567 27.7866Z" fill="white"/>
</g>
<defs>
<clipPath id="clip0_789_124">
<rect width="63" height="39" fill="white"/>
</clipPath>
</defs>
</svg>
