<svg width="430" height="144" viewBox="0 0 430 144" fill="none" xmlns="http://www.w3.org/2000/svg">
<g clip-path="url(#clip0_1038_9153)">
<path d="M0.837891 0.84082V83.9721L50.2108 143.159H429.161V72.0001L391.125 0.84082H0.837891Z" stroke="white" stroke-width="3" stroke-miterlimit="10"/>
<path d="M366.136 71.277C376.177 71.277 384.316 63.1165 384.316 53.05C384.316 42.9835 376.177 34.823 366.136 34.823C356.096 34.823 347.957 42.9835 347.957 53.05C347.957 63.1165 356.096 71.277 366.136 71.277Z" fill="white"/>
<path d="M366.137 79.7347C380.836 79.7347 392.752 67.7875 392.752 53.05C392.752 38.3124 380.836 26.3652 366.137 26.3652C351.437 26.3652 339.521 38.3124 339.521 53.05C339.521 67.7875 351.437 79.7347 366.137 79.7347Z" stroke="white" stroke-miterlimit="10"/>
<path d="M407.409 105.259H336.436V117.635H407.409V105.259Z" stroke="white" stroke-miterlimit="10"/>
</g>
<defs>
<clipPath id="clip0_1038_9153">
<rect width="430" height="144" fill="white"/>
</clipPath>
</defs>
</svg>
