<svg width="52" height="52" viewBox="0 0 52 52" fill="none" xmlns="http://www.w3.org/2000/svg">
<g clip-path="url(#clip0_789_121)">
<path d="M52 26.1581C52 11.7079 40.3629 0 25.9999 0C11.6371 0 0 11.7079 0 26.1581C0 39.2142 9.50784 50.0361 21.9374 52V33.7198H15.3327V26.1581H21.9374V20.395C21.9374 13.8396 25.8165 10.2186 31.7577 10.2186C34.6031 10.2186 37.5783 10.7291 37.5783 10.7291V17.1632H34.299C31.0699 17.1632 30.0625 19.1799 30.0625 21.2483V26.1581H37.2732L36.1201 33.7198H30.0625V52C42.4921 50.0361 52 39.2142 52 26.1581Z" fill="white"/>
</g>
<defs>
<clipPath id="clip0_789_121">
<rect width="52" height="52" fill="white"/>
</clipPath>
</defs>
</svg>
