<svg width="51" height="49" viewBox="0 0 51 49" fill="none" xmlns="http://www.w3.org/2000/svg">
<path d="M25.5056 11.8761C18.2696 11.8761 12.4329 17.4566 12.4329 24.375C12.4329 31.2935 18.2696 36.8739 25.5056 36.8739C32.7419 36.8739 38.5787 31.2935 38.5787 24.375C38.5787 17.4566 32.7419 11.8761 25.5056 11.8761ZM25.5056 32.501C20.8294 32.501 17.0067 28.8568 17.0067 24.375C17.0067 19.8933 20.8182 16.2491 25.5056 16.2491C30.1932 16.2491 34.0048 19.8933 34.0048 24.375C34.0048 28.8568 30.1819 32.501 25.5056 32.501ZM42.1626 11.3648C42.1626 12.9857 40.7972 14.2802 39.1133 14.2802C37.4181 14.2802 36.0642 12.9748 36.0642 11.3648C36.0642 9.75488 37.4295 8.44955 39.1133 8.44955C40.7972 8.44955 42.1626 9.75488 42.1626 11.3648ZM50.8209 14.3237C50.6274 10.4185 49.6945 6.95926 46.7021 4.10919C43.7211 1.25913 40.1032 0.367135 36.0186 0.171329C31.8089 -0.0571097 19.1912 -0.0571097 14.9815 0.171329C10.9083 0.356257 7.2902 1.24826 4.29789 4.09832C1.30558 6.94834 0.383993 10.4076 0.179197 14.3128C-0.0597324 18.3377 -0.0597324 30.4015 0.179197 34.4263C0.372616 38.3315 1.30558 41.7908 4.29789 44.6409C7.2902 47.4909 10.8969 48.383 14.9815 48.5788C19.1912 48.8071 31.8089 48.8071 36.0186 48.5788C40.1032 48.3939 43.7211 47.5017 46.7021 44.6409C49.683 41.7908 50.616 38.3315 50.8209 34.4263C51.0597 30.4015 51.0597 18.3485 50.8209 14.3237ZM45.3824 38.7449C44.495 40.8771 42.777 42.5196 40.5355 43.3789C37.1792 44.6518 29.2149 44.358 25.5056 44.358C21.7966 44.358 13.821 44.6409 10.4759 43.3789C8.24589 42.5305 6.5279 40.888 5.62908 38.7449C4.29789 35.5359 4.60508 27.9213 4.60508 24.375C4.60508 20.8288 4.30927 13.2033 5.62908 10.0051C6.51653 7.87298 8.23452 6.2304 10.4759 5.37103C13.8323 4.0983 21.7966 4.39202 25.5056 4.39202C29.2149 4.39202 37.1904 4.10919 40.5355 5.37103C42.7656 6.21953 44.4836 7.86211 45.3824 10.0051C46.7135 13.2141 46.4063 20.8288 46.4063 24.375C46.4063 27.9213 46.7135 35.5468 45.3824 38.7449Z" fill="url(#paint0_linear_789_123)"/>
<defs>
<linearGradient id="paint0_linear_789_123" x1="25.5" y1="0" x2="25.5" y2="48.75" gradientUnits="userSpaceOnUse">
<stop stop-color="white"/>
<stop offset="1" stop-color="white"/>
</linearGradient>
</defs>
</svg>
