<svg width="432" height="146" viewBox="0 0 432 146" fill="none" xmlns="http://www.w3.org/2000/svg">
<path d="M1.83789 1.84082V84.9721L51.2108 144.159H430.161V73.0001L392.125 1.84082H1.83789Z" fill="#003CD1" stroke="white" stroke-width="3" stroke-miterlimit="10"/>
<path d="M367.136 72.277C377.177 72.277 385.316 64.1165 385.316 54.05C385.316 43.9835 377.177 35.823 367.136 35.823C357.096 35.823 348.957 43.9835 348.957 54.05C348.957 64.1165 357.096 72.277 367.136 72.277Z" fill="white"/>
<path d="M367.137 80.7347C381.836 80.7347 393.752 68.7875 393.752 54.05C393.752 39.3124 381.836 27.3652 367.137 27.3652C352.437 27.3652 340.521 39.3124 340.521 54.05C340.521 68.7875 352.437 80.7347 367.137 80.7347Z" stroke="white" stroke-miterlimit="10"/>
<path d="M408.409 106.259H337.436V118.635H408.409V106.259Z" stroke="white" stroke-miterlimit="10"/>
</svg>
