<svg width="296" height="109" viewBox="0 0 296 109" fill="none" xmlns="http://www.w3.org/2000/svg">
<path d="M168.988 11.775L148.066 11.7266L146.849 21.7881H167.799L168.988 11.775ZM160.22 19.6098L154.88 19.6651L155.52 13.8495H160.957L160.22 19.6029V19.6098Z" fill="white"/>
<path d="M145.236 11.775L124.314 11.7266L123.098 21.7881H144.047L145.236 11.775ZM136.468 19.6098L131.128 19.6651L131.768 13.8495H137.205L136.468 19.6029V19.6098Z" fill="white"/>
<path d="M296 16.5395H276.712L278.729 10.7585H268.674L266.595 16.5395H245.708L247.6 11.1181H237.545L235.599 16.5395H205.436L207.126 0.869873L196.745 3.17952L195.25 16.5395H174.314L173.612 18.289H195.055L194.255 25.4185H177.269L173.959 50.714L191.426 50.7347L190.591 58.21H115.581L97.4198 29.367L97.9065 23.4754H118.175L120.288 21.3317H98.0803L99.1441 8.40043L86.5521 9.75579L85.5369 21.3317H45.1464L42.3652 11.5261H32.9298L35.5651 21.3317H7.63449L0 82.0602L11.0763 77.3786L16.1659 36.8423H24.2524L21.0053 63.9495L14.2886 66.7294V68.8316L31.3376 61.626L34.3135 35.0374H16.3954L17.8486 23.4685H36.1213L43.4707 50.8177L31.9425 68.6933L42.8588 64.074L45.807 59.5169L50.994 78.8308H61.4514L52.8643 48.5841L61.507 35.2103H53.5249L50.4308 40.0094L45.7305 23.4615H85.3214L84.7095 30.4942L61.9659 61.0106H73.7097L90.8074 38.2253L103.518 59.8419H135.342L132.519 78.9415L144.416 77.4685L147.127 59.835H190.383L188.081 80.3798L199.143 74.7993L200.757 59.835H224.362L226.706 58.1961H200.937L201.737 50.7347H209.949L219.28 50.7416L222.589 25.3978H204.456L205.22 18.2752H234.945L231.489 27.901L242.983 24.2844L245.076 18.2752H249.234L250.297 24.5956L257.042 25.5845L256.486 18.2752H265.956L262.625 27.5345L274.119 23.9179L276.086 18.2752H280.425L281.426 24.236L288.171 25.2249L287.642 18.2752H295.277L295.979 16.5257L296 16.5395ZM191.523 49.732H183.742L185.237 38.4812H192.781L191.523 49.732ZM192.9 37.4093H185.376L186.85 26.3106H194.144L192.9 37.4093ZM209.81 49.732H201.848L203.058 38.4812H211.249L209.803 49.732H209.81ZM212.82 26.2898L211.395 37.4162H203.183L204.379 26.2967H212.827L212.82 26.2898Z" fill="white"/>
<path d="M272.867 40.1062H263.467L255.311 108.13L265.977 99.0506L269.384 69.9034L285.438 64.1224L288.595 40.1062H272.867ZM275.6 66.0102L269.592 68.1262L272.7 41.5307H279.034L275.6 66.0033V66.0102Z" fill="white"/>
<path d="M244.276 56.9099L246.71 62.3314L238.748 63.4378L240.035 53.0928H257.139L259.983 31.1581H233.415L227.491 76.7079L237.844 70.7125L238.561 64.9522L247.342 63.7351L249.818 69.2465L259.559 71.162L252.794 56.9099H244.283H244.276ZM242.287 32.8799H251.549L250.423 41.5445H241.203L242.28 32.8799H242.287ZM241.015 43.1074H250.228L249.108 51.7098H239.944L241.015 43.1074Z" fill="white"/>
<path d="M124.022 41.261L122.743 52.2353H140.334L139.931 56.0455H141.933L142.337 52.2284H159.483L160.762 41.261H164.719L164.837 40.1269H160.894L162.167 29.2495H144.861L145.271 25.3424H143.268L142.858 29.2495H125.427L124.161 40.1269H120.344L120.226 41.261H124.029H124.022ZM133.082 30.0309H142.775L142.462 33.0113H144.464L144.777 30.0309H154.303L153.086 40.12H149.985L149.867 41.2541H152.954L151.737 51.3433H142.441L142.754 48.3559H140.751L140.438 51.3433H130.69L131.831 41.2541H135.098L135.217 40.12H131.956L133.096 30.0309H133.082Z" fill="white"/>
<path d="M266.595 31.7943L266.679 31.1304H269.029L268.946 31.7943H266.595ZM266.651 37.5545L267.492 31.1304H269.071L268.229 37.5545H266.651Z" fill="white"/>
<path d="M270.962 37.5545L271.803 31.1304H273.382L272.54 37.5545H270.962ZM270.962 37.5545L271.052 36.8907H276.17L276.086 37.5545H270.955H270.962ZM271.497 34.4497L271.581 33.7858H276.476L276.392 34.4497H271.497ZM271.72 31.7943L271.803 31.1304H276.893L276.81 31.7943H271.72ZM274.515 37.5545L275.016 33.7789H276.594L276.093 37.5545H274.515Z" fill="white"/>
<path d="M277.435 34.4497L277.526 33.7858H280.342L280.258 34.4497H277.435ZM277.394 37.5545L278.103 32.1054H279.681L278.972 37.5545H277.394ZM277.533 37.5545L277.609 36.8907H279.938L279.855 37.5545H277.533Z" fill="white"/>
<path d="M280.731 37.5545L281.579 31.1304H283.158L282.309 37.5545H280.731ZM281.26 34.4497L281.343 33.7858H286.238L286.154 34.4497H281.26ZM284.277 37.5545L284.778 33.7789H286.356L285.856 37.5545H284.277Z" fill="white"/>
<path d="M145.138 43.32C146.795 41.7558 146.99 39.2841 145.574 37.7992C144.157 36.3143 141.665 36.3786 140.007 37.9428C138.35 39.507 138.155 41.9788 139.572 43.4637C140.989 44.9485 143.481 44.8842 145.138 43.32Z" stroke="white" stroke-width="0.62" stroke-miterlimit="10"/>
<path d="M136.183 40.6456H148.97" stroke="white" stroke-width="0.62" stroke-miterlimit="10"/>
<path d="M141.906 47.0006L143.248 34.2906" stroke="white" stroke-width="0.62" stroke-miterlimit="10"/>
<path d="M16.5554 77.1989C17.5116 77.1989 18.2867 76.428 18.2867 75.477C18.2867 74.5261 17.5116 73.7552 16.5554 73.7552C15.5992 73.7552 14.8241 74.5261 14.8241 75.477C14.8241 76.428 15.5992 77.1989 16.5554 77.1989Z" stroke="#3BDEF4" stroke-width="0.44" stroke-miterlimit="10"/>
<path d="M23.0287 77.1989C23.9849 77.1989 24.76 76.428 24.76 75.477C24.76 74.5261 23.9849 73.7552 23.0287 73.7552C22.0725 73.7552 21.2974 74.5261 21.2974 75.477C21.2974 76.428 22.0725 77.1989 23.0287 77.1989Z" stroke="#3BDEF4" stroke-width="0.44" stroke-miterlimit="10"/>
<path d="M16.5554 75.477L19.1072 71.8812L20.1224 75.477H16.5554Z" stroke="#3BDEF4" stroke-width="0.44" stroke-linecap="round" stroke-linejoin="round"/>
<path d="M22.9105 71.8812H19.1072L20.1223 75.477L22.9105 71.8812Z" stroke="#3BDEF4" stroke-width="0.44" stroke-linecap="round" stroke-linejoin="round"/>
<path d="M23.0287 75.477V70.4636L21.5547 69.4194L24.4819 71.5008" stroke="#3BDEF4" stroke-width="0.44" stroke-miterlimit="10"/>
<path d="M17.2507 70.2293L19.7121 70.104" stroke="#3BDEF4" stroke-width="0.44" stroke-miterlimit="10"/>
<path d="M20.1224 75.477L18.6831 70.1524" stroke="#3BDEF4" stroke-width="0.44" stroke-miterlimit="10" stroke-linecap="round"/>
<path d="M27.7638 76.7494H43.9854" stroke="#3BDEF4" stroke-width="0.15" stroke-miterlimit="10"/>
<path d="M26.1924 75.8712H46.405" stroke="#3BDEF4" stroke-width="0.15" stroke-miterlimit="10"/>
<path d="M14.7545 77.6829H47.7539" stroke="#3BDEF4" stroke-width="0.15" stroke-miterlimit="10"/>
</svg>
